# xmcd CD database file generated by freedbAccess_ocx
#
# Track frame offsets:
#       150
#       22221
#       39838
#       56246
#       69084
#       87801
#       106799
#       126110
#       152345
#       171030
#       189313
#       216288
#       242368
#       261471
#       274603
#       293487
#
# Disc length: 4144 seconds
#
# Revision: 0
# Processed by: cddbd v1.5.2PL0 Copyright (c) Steve Scherf et al.
# Submitted via: CDnGo 1.95
#
DISCID=d1102e10
DTITLE=Various Artist - Black and White Blues-1
DYEAR=2005
DGENRE=Blues
TTITLE0=Joe Bonamassa - my mistake
TTITLE1=Joe Bonamassa - waiting for me
TTITLE2=Popa Chubby - daddy played the guitar
TTITLE3=Popa Chubby - how'd a white boy get the blues
TTITLE4=Andrew Strong - unchained dog
TTITLE5=Jonny Lang - there's gotta be a change
TTITLE6=Sonny Landreth - z. rider
TTITLE7=Vivino Brothers - fools gold
TTITLE8=ARC Angels - shape I'm in
TTITLE9=Kenny Wayne Shepherd - I found love
TTITLE10=Kenny Wayne Shepherd - everybody gets the blues
TTITLE11=Blues Company - cold rain
TTITLE12=Rob Tognoni - stones and colours
TTITLE13=Keb' Mo' - hand it over
TTITLE14=Keb 'Mo' - loola loo
TTITLE15=Pat Travers - time out
EXTD=
EXTT0=
EXTT1=
EXTT2=
EXTT3=
EXTT4=
EXTT5=
EXTT6=
EXTT7=
EXTT8=
EXTT9=
EXTT10=
EXTT11=
EXTT12=
EXTT13=
EXTT14=
EXTT15=
PLAYORDER=
